M48
; DRILL file {KiCad 9.0.6} date 2025-12-04T23:38:01+0530
; FORMAT={-:-/ absolute / metric / decimal}
; #@! TF.CreationDate,2025-12-04T23:38:01+05:30
; #@! TF.GenerationSoftware,Kicad,Pcbnew,9.0.6
; #@! TF.FileFunction,Plated,1,2,PTH
FMAT,2
METRIC
; #@! TA.AperFunction,Plated,PTH,ComponentDrill
T1C0.800
; #@! TA.AperFunction,Plated,PTH,ComponentDrill
T2C0.889
; #@! TA.AperFunction,Plated,PTH,ComponentDrill
T3C1.000
; #@! TA.AperFunction,Plated,PTH,ComponentDrill
T4C1.020
; #@! TA.AperFunction,Plated,PTH,ComponentDrill
T5C1.500
%
G90
G05
T1
X112.674Y-84.901
X112.674Y-92.521
X112.674Y-111.571
X112.674Y-119.191
X131.724Y-84.901
X131.724Y-92.521
X131.724Y-111.571
X131.724Y-119.191
X150.774Y-84.901
X150.774Y-92.521
X150.774Y-111.571
X150.774Y-119.191
T2
X112.197Y-54.421
X112.197Y-56.961
X112.197Y-59.501
X112.197Y-62.041
X112.197Y-64.581
X112.197Y-67.121
X112.197Y-69.661
X127.438Y-54.421
X127.438Y-56.961
X127.438Y-59.501
X127.438Y-62.041
X127.438Y-64.581
X127.438Y-67.121
X127.438Y-69.661
T3
X134.105Y-73.234
X134.105Y-75.734
X134.105Y-78.234
X148.605Y-73.234
X148.605Y-78.234
X153.155Y-73.234
X153.155Y-75.734
X153.155Y-78.234
X167.655Y-73.234
X167.655Y-78.234
T4
X138.868Y-56.326
X138.868Y-58.866
X138.868Y-61.406
X138.868Y-63.946
T5
X118.23Y-92.68
X118.23Y-111.73
X124.58Y-90.14
X124.58Y-109.19
X137.28Y-92.68
X137.28Y-111.73
X143.63Y-90.14
X143.63Y-109.19
X156.33Y-92.68
X156.33Y-111.73
X162.68Y-90.14
X162.68Y-109.19
T5
G00X140.955Y-70.134
M15
G01X142.255Y-70.134
M16
G05
G00X140.955Y-81.334
M15
G01X142.255Y-81.334
M16
G05
G00X160.005Y-70.134
M15
G01X161.305Y-70.134
M16
G05
G00X160.005Y-81.334
M15
G01X161.305Y-81.334
M16
G05
M30
