%TF.GenerationSoftware,KiCad,Pcbnew,9.0.6*%
%TF.CreationDate,2025-12-04T23:37:52+05:30*%
%TF.ProjectId,MacroPad,4d616372-6f50-4616-942e-6b696361645f,rev?*%
%TF.SameCoordinates,Original*%
%TF.FileFunction,Legend,Bot*%
%TF.FilePolarity,Positive*%
%FSLAX46Y46*%
G04 Gerber Fmt 4.6, Leading zero omitted, Abs format (unit mm)*
G04 Created by KiCad (PCBNEW 9.0.6) date 2025-12-04 23:37:52*
%MOMM*%
%LPD*%
G01*
G04 APERTURE LIST*
%ADD10C,0.300000*%
%ADD11C,0.150000*%
%ADD12C,0.120000*%
G04 APERTURE END LIST*
D10*
X113085403Y-57484578D02*
X114085403Y-58984578D01*
X114085403Y-57484578D02*
X113085403Y-58984578D01*
X114656831Y-58984578D02*
X114656831Y-57484578D01*
X115299689Y-58556007D02*
X116013975Y-58556007D01*
X115156832Y-58984578D02*
X115656832Y-57484578D01*
X115656832Y-57484578D02*
X116156832Y-58984578D01*
X116942546Y-57484578D02*
X117228260Y-57484578D01*
X117228260Y-57484578D02*
X117371117Y-57556007D01*
X117371117Y-57556007D02*
X117513974Y-57698864D01*
X117513974Y-57698864D02*
X117585403Y-57984578D01*
X117585403Y-57984578D02*
X117585403Y-58484578D01*
X117585403Y-58484578D02*
X117513974Y-58770292D01*
X117513974Y-58770292D02*
X117371117Y-58913150D01*
X117371117Y-58913150D02*
X117228260Y-58984578D01*
X117228260Y-58984578D02*
X116942546Y-58984578D01*
X116942546Y-58984578D02*
X116799689Y-58913150D01*
X116799689Y-58913150D02*
X116656831Y-58770292D01*
X116656831Y-58770292D02*
X116585403Y-58484578D01*
X116585403Y-58484578D02*
X116585403Y-57984578D01*
X116585403Y-57984578D02*
X116656831Y-57698864D01*
X116656831Y-57698864D02*
X116799689Y-57556007D01*
X116799689Y-57556007D02*
X116942546Y-57484578D01*
X119371117Y-58984578D02*
X119371117Y-57484578D01*
X119371117Y-58198864D02*
X120228260Y-58198864D01*
X120228260Y-58984578D02*
X120228260Y-57484578D01*
X120942546Y-58198864D02*
X121442546Y-58198864D01*
X121656832Y-58984578D02*
X120942546Y-58984578D01*
X120942546Y-58984578D02*
X120942546Y-57484578D01*
X120942546Y-57484578D02*
X121656832Y-57484578D01*
X123156832Y-58984578D02*
X122656832Y-58270292D01*
X122299689Y-58984578D02*
X122299689Y-57484578D01*
X122299689Y-57484578D02*
X122871118Y-57484578D01*
X122871118Y-57484578D02*
X123013975Y-57556007D01*
X123013975Y-57556007D02*
X123085404Y-57627435D01*
X123085404Y-57627435D02*
X123156832Y-57770292D01*
X123156832Y-57770292D02*
X123156832Y-57984578D01*
X123156832Y-57984578D02*
X123085404Y-58127435D01*
X123085404Y-58127435D02*
X123013975Y-58198864D01*
X123013975Y-58198864D02*
X122871118Y-58270292D01*
X122871118Y-58270292D02*
X122299689Y-58270292D01*
X123799689Y-58198864D02*
X124299689Y-58198864D01*
X124513975Y-58984578D02*
X123799689Y-58984578D01*
X123799689Y-58984578D02*
X123799689Y-57484578D01*
X123799689Y-57484578D02*
X124513975Y-57484578D01*
X125156832Y-58841721D02*
X125228261Y-58913150D01*
X125228261Y-58913150D02*
X125156832Y-58984578D01*
X125156832Y-58984578D02*
X125085404Y-58913150D01*
X125085404Y-58913150D02*
X125156832Y-58841721D01*
X125156832Y-58841721D02*
X125156832Y-58984578D01*
X125156832Y-58413150D02*
X125085404Y-57556007D01*
X125085404Y-57556007D02*
X125156832Y-57484578D01*
X125156832Y-57484578D02*
X125228261Y-57556007D01*
X125228261Y-57556007D02*
X125156832Y-58413150D01*
X125156832Y-58413150D02*
X125156832Y-57484578D01*
D11*
X111008569Y-87973155D02*
X110008569Y-87973155D01*
X110008569Y-87973155D02*
X110008569Y-88211250D01*
X110008569Y-88211250D02*
X110056188Y-88354107D01*
X110056188Y-88354107D02*
X110151426Y-88449345D01*
X110151426Y-88449345D02*
X110246664Y-88496964D01*
X110246664Y-88496964D02*
X110437140Y-88544583D01*
X110437140Y-88544583D02*
X110579997Y-88544583D01*
X110579997Y-88544583D02*
X110770473Y-88496964D01*
X110770473Y-88496964D02*
X110865711Y-88449345D01*
X110865711Y-88449345D02*
X110960950Y-88354107D01*
X110960950Y-88354107D02*
X111008569Y-88211250D01*
X111008569Y-88211250D02*
X111008569Y-87973155D01*
X110008569Y-88877917D02*
X110008569Y-89544583D01*
X110008569Y-89544583D02*
X111008569Y-89116012D01*
X111328569Y-84639345D02*
X110328569Y-84639345D01*
X111328569Y-85210773D02*
X110757140Y-84782202D01*
X110328569Y-85210773D02*
X110899997Y-84639345D01*
X134298569Y-114166964D02*
X133298569Y-114166964D01*
X133298569Y-114166964D02*
X133298569Y-114405059D01*
X133298569Y-114405059D02*
X133346188Y-114547916D01*
X133346188Y-114547916D02*
X133441426Y-114643154D01*
X133441426Y-114643154D02*
X133536664Y-114690773D01*
X133536664Y-114690773D02*
X133727140Y-114738392D01*
X133727140Y-114738392D02*
X133869997Y-114738392D01*
X133869997Y-114738392D02*
X134060473Y-114690773D01*
X134060473Y-114690773D02*
X134155711Y-114643154D01*
X134155711Y-114643154D02*
X134250950Y-114547916D01*
X134250950Y-114547916D02*
X134298569Y-114405059D01*
X134298569Y-114405059D02*
X134298569Y-114166964D01*
X134298569Y-115690773D02*
X134298569Y-115119345D01*
X134298569Y-115405059D02*
X133298569Y-115405059D01*
X133298569Y-115405059D02*
X133441426Y-115309821D01*
X133441426Y-115309821D02*
X133536664Y-115214583D01*
X133536664Y-115214583D02*
X133584283Y-115119345D01*
X133298569Y-116309821D02*
X133298569Y-116405059D01*
X133298569Y-116405059D02*
X133346188Y-116500297D01*
X133346188Y-116500297D02*
X133393807Y-116547916D01*
X133393807Y-116547916D02*
X133489045Y-116595535D01*
X133489045Y-116595535D02*
X133679521Y-116643154D01*
X133679521Y-116643154D02*
X133917616Y-116643154D01*
X133917616Y-116643154D02*
X134108092Y-116595535D01*
X134108092Y-116595535D02*
X134203330Y-116547916D01*
X134203330Y-116547916D02*
X134250950Y-116500297D01*
X134250950Y-116500297D02*
X134298569Y-116405059D01*
X134298569Y-116405059D02*
X134298569Y-116309821D01*
X134298569Y-116309821D02*
X134250950Y-116214583D01*
X134250950Y-116214583D02*
X134203330Y-116166964D01*
X134203330Y-116166964D02*
X134108092Y-116119345D01*
X134108092Y-116119345D02*
X133917616Y-116071726D01*
X133917616Y-116071726D02*
X133679521Y-116071726D01*
X133679521Y-116071726D02*
X133489045Y-116119345D01*
X133489045Y-116119345D02*
X133393807Y-116166964D01*
X133393807Y-116166964D02*
X133346188Y-116214583D01*
X133346188Y-116214583D02*
X133298569Y-116309821D01*
X133978569Y-118929345D02*
X132978569Y-118929345D01*
X133978569Y-119500773D02*
X133407140Y-119072202D01*
X132978569Y-119500773D02*
X133549997Y-118929345D01*
X149108569Y-87973155D02*
X148108569Y-87973155D01*
X148108569Y-87973155D02*
X148108569Y-88211250D01*
X148108569Y-88211250D02*
X148156188Y-88354107D01*
X148156188Y-88354107D02*
X148251426Y-88449345D01*
X148251426Y-88449345D02*
X148346664Y-88496964D01*
X148346664Y-88496964D02*
X148537140Y-88544583D01*
X148537140Y-88544583D02*
X148679997Y-88544583D01*
X148679997Y-88544583D02*
X148870473Y-88496964D01*
X148870473Y-88496964D02*
X148965711Y-88449345D01*
X148965711Y-88449345D02*
X149060950Y-88354107D01*
X149060950Y-88354107D02*
X149108569Y-88211250D01*
X149108569Y-88211250D02*
X149108569Y-87973155D01*
X148108569Y-89401726D02*
X148108569Y-89211250D01*
X148108569Y-89211250D02*
X148156188Y-89116012D01*
X148156188Y-89116012D02*
X148203807Y-89068393D01*
X148203807Y-89068393D02*
X148346664Y-88973155D01*
X148346664Y-88973155D02*
X148537140Y-88925536D01*
X148537140Y-88925536D02*
X148918092Y-88925536D01*
X148918092Y-88925536D02*
X149013330Y-88973155D01*
X149013330Y-88973155D02*
X149060950Y-89020774D01*
X149060950Y-89020774D02*
X149108569Y-89116012D01*
X149108569Y-89116012D02*
X149108569Y-89306488D01*
X149108569Y-89306488D02*
X149060950Y-89401726D01*
X149060950Y-89401726D02*
X149013330Y-89449345D01*
X149013330Y-89449345D02*
X148918092Y-89496964D01*
X148918092Y-89496964D02*
X148679997Y-89496964D01*
X148679997Y-89496964D02*
X148584759Y-89449345D01*
X148584759Y-89449345D02*
X148537140Y-89401726D01*
X148537140Y-89401726D02*
X148489521Y-89306488D01*
X148489521Y-89306488D02*
X148489521Y-89116012D01*
X148489521Y-89116012D02*
X148537140Y-89020774D01*
X148537140Y-89020774D02*
X148584759Y-88973155D01*
X148584759Y-88973155D02*
X148679997Y-88925536D01*
X149428569Y-84639345D02*
X148428569Y-84639345D01*
X149428569Y-85210773D02*
X148857140Y-84782202D01*
X148428569Y-85210773D02*
X148999997Y-84639345D01*
X130058569Y-87973155D02*
X129058569Y-87973155D01*
X129058569Y-87973155D02*
X129058569Y-88211250D01*
X129058569Y-88211250D02*
X129106188Y-88354107D01*
X129106188Y-88354107D02*
X129201426Y-88449345D01*
X129201426Y-88449345D02*
X129296664Y-88496964D01*
X129296664Y-88496964D02*
X129487140Y-88544583D01*
X129487140Y-88544583D02*
X129629997Y-88544583D01*
X129629997Y-88544583D02*
X129820473Y-88496964D01*
X129820473Y-88496964D02*
X129915711Y-88449345D01*
X129915711Y-88449345D02*
X130010950Y-88354107D01*
X130010950Y-88354107D02*
X130058569Y-88211250D01*
X130058569Y-88211250D02*
X130058569Y-87973155D01*
X129487140Y-89116012D02*
X129439521Y-89020774D01*
X129439521Y-89020774D02*
X129391902Y-88973155D01*
X129391902Y-88973155D02*
X129296664Y-88925536D01*
X129296664Y-88925536D02*
X129249045Y-88925536D01*
X129249045Y-88925536D02*
X129153807Y-88973155D01*
X129153807Y-88973155D02*
X129106188Y-89020774D01*
X129106188Y-89020774D02*
X129058569Y-89116012D01*
X129058569Y-89116012D02*
X129058569Y-89306488D01*
X129058569Y-89306488D02*
X129106188Y-89401726D01*
X129106188Y-89401726D02*
X129153807Y-89449345D01*
X129153807Y-89449345D02*
X129249045Y-89496964D01*
X129249045Y-89496964D02*
X129296664Y-89496964D01*
X129296664Y-89496964D02*
X129391902Y-89449345D01*
X129391902Y-89449345D02*
X129439521Y-89401726D01*
X129439521Y-89401726D02*
X129487140Y-89306488D01*
X129487140Y-89306488D02*
X129487140Y-89116012D01*
X129487140Y-89116012D02*
X129534759Y-89020774D01*
X129534759Y-89020774D02*
X129582378Y-88973155D01*
X129582378Y-88973155D02*
X129677616Y-88925536D01*
X129677616Y-88925536D02*
X129868092Y-88925536D01*
X129868092Y-88925536D02*
X129963330Y-88973155D01*
X129963330Y-88973155D02*
X130010950Y-89020774D01*
X130010950Y-89020774D02*
X130058569Y-89116012D01*
X130058569Y-89116012D02*
X130058569Y-89306488D01*
X130058569Y-89306488D02*
X130010950Y-89401726D01*
X130010950Y-89401726D02*
X129963330Y-89449345D01*
X129963330Y-89449345D02*
X129868092Y-89496964D01*
X129868092Y-89496964D02*
X129677616Y-89496964D01*
X129677616Y-89496964D02*
X129582378Y-89449345D01*
X129582378Y-89449345D02*
X129534759Y-89401726D01*
X129534759Y-89401726D02*
X129487140Y-89306488D01*
X130378569Y-84639345D02*
X129378569Y-84639345D01*
X130378569Y-85210773D02*
X129807140Y-84782202D01*
X129378569Y-85210773D02*
X129949997Y-84639345D01*
X153348569Y-114643155D02*
X152348569Y-114643155D01*
X152348569Y-114643155D02*
X152348569Y-114881250D01*
X152348569Y-114881250D02*
X152396188Y-115024107D01*
X152396188Y-115024107D02*
X152491426Y-115119345D01*
X152491426Y-115119345D02*
X152586664Y-115166964D01*
X152586664Y-115166964D02*
X152777140Y-115214583D01*
X152777140Y-115214583D02*
X152919997Y-115214583D01*
X152919997Y-115214583D02*
X153110473Y-115166964D01*
X153110473Y-115166964D02*
X153205711Y-115119345D01*
X153205711Y-115119345D02*
X153300950Y-115024107D01*
X153300950Y-115024107D02*
X153348569Y-114881250D01*
X153348569Y-114881250D02*
X153348569Y-114643155D01*
X152348569Y-116119345D02*
X152348569Y-115643155D01*
X152348569Y-115643155D02*
X152824759Y-115595536D01*
X152824759Y-115595536D02*
X152777140Y-115643155D01*
X152777140Y-115643155D02*
X152729521Y-115738393D01*
X152729521Y-115738393D02*
X152729521Y-115976488D01*
X152729521Y-115976488D02*
X152777140Y-116071726D01*
X152777140Y-116071726D02*
X152824759Y-116119345D01*
X152824759Y-116119345D02*
X152919997Y-116166964D01*
X152919997Y-116166964D02*
X153158092Y-116166964D01*
X153158092Y-116166964D02*
X153253330Y-116119345D01*
X153253330Y-116119345D02*
X153300950Y-116071726D01*
X153300950Y-116071726D02*
X153348569Y-115976488D01*
X153348569Y-115976488D02*
X153348569Y-115738393D01*
X153348569Y-115738393D02*
X153300950Y-115643155D01*
X153300950Y-115643155D02*
X153253330Y-115595536D01*
X153028569Y-118929345D02*
X152028569Y-118929345D01*
X153028569Y-119500773D02*
X152457140Y-119072202D01*
X152028569Y-119500773D02*
X152599997Y-118929345D01*
X115248569Y-114643155D02*
X114248569Y-114643155D01*
X114248569Y-114643155D02*
X114248569Y-114881250D01*
X114248569Y-114881250D02*
X114296188Y-115024107D01*
X114296188Y-115024107D02*
X114391426Y-115119345D01*
X114391426Y-115119345D02*
X114486664Y-115166964D01*
X114486664Y-115166964D02*
X114677140Y-115214583D01*
X114677140Y-115214583D02*
X114819997Y-115214583D01*
X114819997Y-115214583D02*
X115010473Y-115166964D01*
X115010473Y-115166964D02*
X115105711Y-115119345D01*
X115105711Y-115119345D02*
X115200950Y-115024107D01*
X115200950Y-115024107D02*
X115248569Y-114881250D01*
X115248569Y-114881250D02*
X115248569Y-114643155D01*
X115248569Y-115690774D02*
X115248569Y-115881250D01*
X115248569Y-115881250D02*
X115200950Y-115976488D01*
X115200950Y-115976488D02*
X115153330Y-116024107D01*
X115153330Y-116024107D02*
X115010473Y-116119345D01*
X115010473Y-116119345D02*
X114819997Y-116166964D01*
X114819997Y-116166964D02*
X114439045Y-116166964D01*
X114439045Y-116166964D02*
X114343807Y-116119345D01*
X114343807Y-116119345D02*
X114296188Y-116071726D01*
X114296188Y-116071726D02*
X114248569Y-115976488D01*
X114248569Y-115976488D02*
X114248569Y-115786012D01*
X114248569Y-115786012D02*
X114296188Y-115690774D01*
X114296188Y-115690774D02*
X114343807Y-115643155D01*
X114343807Y-115643155D02*
X114439045Y-115595536D01*
X114439045Y-115595536D02*
X114677140Y-115595536D01*
X114677140Y-115595536D02*
X114772378Y-115643155D01*
X114772378Y-115643155D02*
X114819997Y-115690774D01*
X114819997Y-115690774D02*
X114867616Y-115786012D01*
X114867616Y-115786012D02*
X114867616Y-115976488D01*
X114867616Y-115976488D02*
X114819997Y-116071726D01*
X114819997Y-116071726D02*
X114772378Y-116119345D01*
X114772378Y-116119345D02*
X114677140Y-116166964D01*
X114928569Y-118929345D02*
X113928569Y-118929345D01*
X114928569Y-119500773D02*
X114357140Y-119072202D01*
X113928569Y-119500773D02*
X114499997Y-118929345D01*
D12*
%TO.C,D7*%
X111553750Y-87191250D02*
X113793750Y-87191250D01*
X111553750Y-87311250D02*
X113793750Y-87311250D01*
X111553750Y-87431250D02*
X113793750Y-87431250D01*
X112673750Y-85941250D02*
X112673750Y-86591250D01*
X112673750Y-91481250D02*
X112673750Y-90831250D01*
X111553750Y-86591250D02*
X113793750Y-86591250D01*
X113793750Y-90831250D01*
X111553750Y-90831250D01*
X111553750Y-86591250D01*
%TO.C,D10*%
X131723750Y-112611250D02*
X131723750Y-113261250D01*
X131723750Y-118151250D02*
X131723750Y-117501250D01*
X132843750Y-116661250D02*
X130603750Y-116661250D01*
X132843750Y-116781250D02*
X130603750Y-116781250D01*
X132843750Y-116901250D02*
X130603750Y-116901250D01*
X132843750Y-117501250D02*
X130603750Y-117501250D01*
X130603750Y-113261250D01*
X132843750Y-113261250D01*
X132843750Y-117501250D01*
%TO.C,D6*%
X149653750Y-87191250D02*
X151893750Y-87191250D01*
X149653750Y-87311250D02*
X151893750Y-87311250D01*
X149653750Y-87431250D02*
X151893750Y-87431250D01*
X150773750Y-85941250D02*
X150773750Y-86591250D01*
X150773750Y-91481250D02*
X150773750Y-90831250D01*
X149653750Y-86591250D02*
X151893750Y-86591250D01*
X151893750Y-90831250D01*
X149653750Y-90831250D01*
X149653750Y-86591250D01*
%TO.C,D8*%
X130603750Y-87191250D02*
X132843750Y-87191250D01*
X130603750Y-87311250D02*
X132843750Y-87311250D01*
X130603750Y-87431250D02*
X132843750Y-87431250D01*
X131723750Y-85941250D02*
X131723750Y-86591250D01*
X131723750Y-91481250D02*
X131723750Y-90831250D01*
X130603750Y-86591250D02*
X132843750Y-86591250D01*
X132843750Y-90831250D01*
X130603750Y-90831250D01*
X130603750Y-86591250D01*
%TO.C,D5*%
X150773750Y-112611250D02*
X150773750Y-113261250D01*
X150773750Y-118151250D02*
X150773750Y-117501250D01*
X151893750Y-116661250D02*
X149653750Y-116661250D01*
X151893750Y-116781250D02*
X149653750Y-116781250D01*
X151893750Y-116901250D02*
X149653750Y-116901250D01*
X151893750Y-117501250D02*
X149653750Y-117501250D01*
X149653750Y-113261250D01*
X151893750Y-113261250D01*
X151893750Y-117501250D01*
%TO.C,D9*%
X112673750Y-112611250D02*
X112673750Y-113261250D01*
X112673750Y-118151250D02*
X112673750Y-117501250D01*
X113793750Y-116661250D02*
X111553750Y-116661250D01*
X113793750Y-116781250D02*
X111553750Y-116781250D01*
X113793750Y-116901250D02*
X111553750Y-116901250D01*
X113793750Y-117501250D02*
X111553750Y-117501250D01*
X111553750Y-113261250D01*
X113793750Y-113261250D01*
X113793750Y-117501250D01*
%TD*%
M02*
